#define bstack_width 14
#define bstack_height 14
static unsigned char bstack_bits[] = {
   0x00, 0x00, 0xfe, 0x0f, 0xfe, 0x0f, 0xfe, 0x0f, 0xfe, 0x0f, 0xfe, 0x0f,
   0x00, 0x00, 0xee, 0x0e, 0xee, 0x0e, 0xee, 0x0e, 0xee, 0x0e, 0x00, 0x00,
   0x00, 0x00, 0x00, 0x00 };
