#define float_width 12
#define float_height 12
static unsigned char float_bits[] = {
   0x00, 0x00, 0x00, 0x00, 0xf8, 0x03, 0xf8, 0x03, 0xf8, 0x03, 0x80, 0x03,
   0x80, 0x03, 0x9c, 0x03, 0x9c, 0x03, 0x1c, 0x00, 0x00, 0x00, 0x00, 0x00 };
