#define float_width 14
#define float_height 14
static unsigned char float_bits[] = {
   0x00, 0x00, 0xfc, 0x0f, 0xfc, 0x0f, 0xfc, 0x0f, 0xfc, 0x0f, 0xfc, 0x0f,
   0xc0, 0x0f, 0xc0, 0x0f, 0xcf, 0x0f, 0xcf, 0x0f, 0x0f, 0x00, 0x0f, 0x00,
   0x00, 0x00, 0x00, 0x00 };
