#define grid_width 14
#define grid_height 14
static unsigned char grid_bits[] = {
   0x00, 0x00, 0xbe, 0x0f, 0xbe, 0x0f, 0xbe, 0x0f, 0xbe, 0x0f, 0xbe, 0x0f,
   0x00, 0x00, 0xbe, 0x0f, 0xbe, 0x0f, 0xbe, 0x0f, 0xbe, 0x0f, 0xbe, 0x0f,
   0x00, 0x00, 0x00, 0x00 };
