#define grid_width 14
#define grid_height 14
static unsigned char grid_bits[] = {
   0x00, 0x00, 0xee, 0x0e, 0xee, 0x0e, 0xee, 0x0e, 0x00, 0x00, 0xee, 0x0e,
   0xee, 0x0e, 0xee, 0x0e, 0x00, 0x00, 0xee, 0x0e, 0xee, 0x0e, 0xee, 0x0e,
   0x00, 0x00, 0x00, 0x00 };
