#define monocle_width 14
#define monocle_height 14
static unsigned char monocle_bits[] = {
   0x00, 0x00, 0x00, 0x00, 0xfc, 0x0f, 0xfc, 0x0f, 0x0c, 0x0c, 0x0c, 0x0c,
   0x0c, 0x0c, 0x0c, 0x0c, 0x0c, 0x0c, 0x0c, 0x0c, 0xfc, 0x0f, 0xfc, 0x0f,
   0x00, 0x00, 0x00, 0x00 };
