#define tile_width 14
#define tile_height 14
static unsigned char tile_bits[] = {
   0x00, 0x00, 0x7c, 0x0f, 0x7c, 0x0f, 0x7c, 0x0f, 0x7c, 0x00, 0x7c, 0x0f,
   0x7c, 0x0f, 0x7c, 0x0f, 0x7c, 0x00, 0x7c, 0x0f, 0x7c, 0x0f, 0x7c, 0x0f,
   0x00, 0x00, 0x00, 0x00 };
